<svg width="87" height="19" viewBox="0 0 87 19" fill="none" xmlns="http://www.w3.org/2000/svg">
<path d="M4.7444 16.4553L3.98012 18.4896H0.754395L7.86897 0.208618L14.9892 18.4896H11.7859L10.9992 16.4328L4.7444 16.4553ZM10.0326 13.887L7.86897 7.70534L5.71099 13.887H10.0326Z" fill="#0B0B0B"/>
<path d="M19.2995 11.0885V18.4897H16.3379V0.714478H22.2611C22.2611 0.714478 28.2124 0.714478 28.2124 5.90149C28.2124 8.77879 26.3803 10.0488 24.7787 10.6333L28.4147 18.5009H25.1328L21.7272 11.0885H19.2995ZM22.2498 8.14376C22.2498 8.14376 25.2227 8.14376 25.2227 5.89587C25.2227 3.64798 22.2498 3.68731 22.2498 3.68731H19.2995V8.13814L22.2498 8.14376Z" fill="#0B0B0B"/>
<path d="M36.1588 3.44005V18.4897H33.1916V3.44005H29.4545V0.714478H39.8791V3.44005H36.1588Z" fill="#0B0B0B"/>
<path d="M55.1083 18.4897H52.1355V11.0885H44.7343V18.4897H41.7783V0.714478H44.7512V8.09318H52.1355V0.714478H55.1083V18.4897Z" fill="#0B0B0B"/>
<path d="M57.9578 7.07585C57.9578 5.76875 58.3454 4.491 59.0715 3.40419C59.7977 2.31738 60.8299 1.47031 62.0375 0.970109C63.2451 0.469904 64.5739 0.339028 65.8559 0.59403C67.1379 0.849032 68.3154 1.47846 69.2397 2.40272C70.1639 3.32697 70.7934 4.50455 71.0484 5.78653C71.3034 7.06851 71.1725 8.39732 70.6723 9.60492C70.1721 10.8125 69.325 11.8447 68.2382 12.5709C67.1514 13.297 65.8737 13.6846 64.5666 13.6846C62.8156 13.6787 61.1381 12.9805 59.9 11.7424C58.6619 10.5043 57.9637 8.82679 57.9578 7.07585ZM58.6378 18.4895V15.5673H70.3886V18.4895H58.6378ZM60.8856 7.07585C60.8856 7.80077 61.1007 8.5094 61.5035 9.11207C61.9064 9.71474 62.479 10.1844 63.1488 10.4615C63.8187 10.7387 64.5557 10.8109 65.2666 10.6691C65.9775 10.5273 66.6304 10.1777 67.1426 9.66474C67.6548 9.15174 68.0033 8.49835 68.144 7.78722C68.2848 7.07609 68.2114 6.33919 67.9332 5.66977C67.6551 5.00035 67.1845 4.42849 66.5813 4.02655C65.978 3.62462 65.269 3.41067 64.5441 3.41178C64.0626 3.40954 63.5854 3.50283 63.1401 3.68624C62.6949 3.86966 62.2904 4.13955 61.9502 4.48031C61.61 4.82107 61.3407 5.22593 61.1579 5.67145C60.9752 6.11698 60.8827 6.59432 60.8856 7.07585Z" fill="#0B0B0B"/>
<path d="M77.0478 11.0885V18.4897H74.075V0.714478H79.9925C79.9925 0.714478 85.9438 0.714478 85.9438 5.90149C85.9438 8.77879 84.1118 10.0488 82.5102 10.6333L86.1742 18.4897H82.8979L79.4868 11.066L77.0478 11.0885ZM79.9925 8.14376C79.9925 8.14376 82.971 8.14376 82.971 5.89587C82.971 3.64798 79.9925 3.68731 79.9925 3.68731H77.0422V8.13814L79.9925 8.14376Z" fill="#0B0B0B"/>
</svg>
