<svg width="35" height="69" viewBox="0 0 35 69" fill="none" xmlns="http://www.w3.org/2000/svg">
<path d="M18 58.1091C21.866 58.1091 25 54.9751 25 51.1091C25 47.2431 21.866 44.1091 18 44.1091C14.134 44.1091 11 47.2431 11 51.1091C11 54.9751 14.134 58.1091 18 58.1091Z" stroke="black" stroke-width="2" stroke-miterlimit="10"/>
<path d="M11.0001 33.1591V7.97908C11.0001 5.39908 12.3001 2.89908 14.5701 1.67908C16.2901 0.759083 18.5801 0.529083 21.2901 2.56908C23.0901 3.91908 24.0801 6.08908 24.0801 8.32908V34.0691C24.0801 36.3691 25.1401 38.5391 26.9801 39.9091C30.2201 42.3191 34.6701 47.3991 31.9901 56.0991C31.9901 56.0991 29.0601 65.9091 18.3701 67.0791C18.0301 67.1191 17.6801 67.1291 17.3301 67.1191C14.4701 67.0491 3.26007 65.7391 2.04007 49.9391C1.99007 49.2891 2.04007 48.6391 2.17007 47.9991C2.59007 45.9591 3.87007 41.5991 7.48007 39.3991C9.66007 38.0691 10.9901 35.6991 10.9901 33.1491L11.0001 33.1591Z" stroke="black" stroke-width="2" stroke-miterlimit="10"/>
<path d="M31 6.10913H26V8.10913H31V6.10913Z" fill="#FF0B0B"/>
<path d="M35 12.1091H26V14.1091H35V12.1091Z" fill="#FC6113"/>
<path d="M31 17.1091H26V19.1091H31V17.1091Z" fill="#EDBD00"/>
<path d="M35 22.1091H26V24.1091H35V22.1091Z" fill="#92B73A"/>
<path d="M31 27.1091H26V29.1091H31V27.1091Z" fill="#4BA84E"/>
<path d="M34 33.1091H26V35.1091H34V33.1091Z" fill="#039A60"/>
<path d="M9 6.10913H4V8.10913H9V6.10913Z" fill="#FF0B0B"/>
<path d="M9 12.1091H0V14.1091H9V12.1091Z" fill="#FC6113"/>
<path d="M9 17.1091H4V19.1091H9V17.1091Z" fill="#EDBD00"/>
<path d="M9 22.1091H0V24.1091H9V22.1091Z" fill="#92B73A"/>
<path d="M9 27.1091H4V29.1091H9V27.1091Z" fill="#4BA84E"/>
<path d="M8 33.1091H0V35.1091H8V33.1091Z" fill="#039A60"/>
</svg>
